<?xml version="1.0" encoding="UTF-8"?>
<!DOCTYPE svg PUBLIC "-//W3C//DTD SVG 1.1//EN" "http://www.w3.org/Graphics/SVG/1.1/DTD/svg11.dtd">
<!-- Creator: CorelDRAW -->
<svg xmlns="http://www.w3.org/2000/svg" xml:space="preserve" width="199.563mm" height="50.7167mm" version="1.1" style="shape-rendering:geometricPrecision; text-rendering:geometricPrecision; image-rendering:optimizeQuality; fill-rule:evenodd; clip-rule:evenodd"
viewBox="0 0 19955.28 5071.4"
 xmlns:xlink="http://www.w3.org/1999/xlink"
 xmlns:xodm="http://www.corel.com/coreldraw/odm/2003">
 <defs>
  <style type="text/css">
   <![CDATA[
    .fil1 {fill:#08D6B4}
    .fil0 {fill:#FCF7F4}
    .fil2 {fill:#FCF7F4;fill-rule:nonzero}
   ]]>
  </style>
 </defs>
 <g id="Camada_x0020_1">
  <metadata id="CorelCorpID_0Corel-Layer"/>
  <g id="_2602574087472">
   <path class="fil0" d="M473.24 175.54l1414.95 0c140.49,6.12 275.56,97.42 299.02,240.31 11.15,67.87 -20.32,97.96 -66.2,145.34 -99.27,102.53 -211.01,207.74 -313.18,309.92 -103.46,103.44 -206.93,206.91 -310.37,310.36 -310.63,310.64 -623.05,619.66 -930.63,933.31 -79.12,80.68 -131.23,114.27 -242.01,52.61 -103.01,-57.33 -154.15,-153.59 -159.18,-269.3l0 -1414.95c0,-169.2 138.4,-307.6 307.59,-307.6z"/>
   <path class="fil1" d="M4065.15 4793.37l-3351.53 0c-332.78,-14.49 -652.7,-230.76 -708.27,-569.19 -26.41,-160.77 48.13,-232.04 156.78,-344.27 235.16,-242.89 499.82,-492.06 741.83,-734.09 245.07,-245.05 490.13,-490.11 735.17,-735.15 735.79,-735.81 1475.77,-1467.75 2204.34,-2210.71 187.41,-191.08 310.84,-270.66 573.22,-124.58 244.02,135.79 365.14,363.8 377.06,637.87l0 3351.54c0,400.77 -327.83,728.59 -728.6,728.59z"/>
   <path class="fil2" d="M7979.08 3829.85c592.46,0 1429.61,-244.71 1532.65,-1371.66l-850.03 0c-83.72,399.26 -315.55,586.02 -689.05,586.02 -534.49,0 -792.08,-392.83 -792.08,-946.64 0,-553.81 257.59,-959.52 792.08,-959.52 360.62,0 605.34,167.43 689.05,573.14l850.03 0c-122.35,-1126.95 -946.63,-1358.78 -1532.65,-1358.78 -824.28,0 -1687.2,495.85 -1687.2,1745.16 0,1249.3 862.92,1732.28 1687.2,1732.28zm1839.06 1159.15l940.2 0 0 -1706.52c122.35,289.78 489.41,547.37 985.27,547.37 701.93,0 1468.25,-508.73 1468.25,-1738.72 0,-1229.98 -766.32,-1738.72 -1468.25,-1738.72 -495.85,0 -862.91,257.59 -985.27,547.37l0 -482.97 -940.2 0 0 4572.19zm1700.08 -1938.35c-412.14,0 -798.52,-302.67 -798.52,-959.52 0,-656.85 386.38,-959.52 798.52,-959.52 418.59,0 804.97,302.67 804.97,959.52 0,656.85 -386.38,959.52 -804.97,959.52zm2895.18 779.2c734.12,0 1004.59,-476.53 1068.98,-656.85l38.64 0 0 592.45 895.12 0 0 -2324.73c0,-727.69 -405.7,-1088.31 -1416.73,-1088.31 -1043.23,0 -1481.13,373.5 -1481.13,1030.36l0 154.55 882.24 0 0 -64.4c0,-347.75 270.47,-444.35 573.13,-444.35 289.78,0 521.61,96.59 521.61,450.79l0 45.08c0,186.75 -96.59,238.27 -405.7,283.34l-566.69 83.72c-579.58,83.72 -1184.91,244.71 -1184.91,985.27 0,689.05 528.05,953.08 1075.43,953.08zm321.98 -669.72c-321.98,0 -457.22,-154.55 -457.22,-360.63 0,-173.87 96.59,-315.54 386.38,-360.62l470.1 -83.72c148.11,-25.76 309.1,-51.52 360.62,-128.79l0 373.5c0,264.03 -315.54,560.26 -759.88,560.26zm2045.13 1101.18l0 792.09c959.52,103.03 1384.54,-225.39 1803.11,-1262.18l1371.66 -3374.4 -965.95 0 -798.53 2163.74 -779.2 -2163.74 -965.96 0 1229.98 3045.98c77.28,186.75 77.28,289.78 6.44,457.22 -77.28,180.31 -238.27,425.02 -901.56,341.3z"/>
  </g>
 </g>
</svg>
